<svg id="Layer_1" data-name="Layer 1" xmlns="http://www.w3.org/2000/svg" viewBox="0 0 32 32"><defs><style>.cls-1{fill:#231f20;}</style></defs><title>chevron-left</title><g id="chevron-left"><path class="cls-1" d="M24.83,28a2,2,0,0,1-1.61.8,2,2,0,0,1-1.19-.4L7.7,17.69l-.12-.09a.93.93,0,0,1-.18-.16c-.06-.05-.11-.11-.17-.17a1.7,1.7,0,0,1-.15-.22L7,16.88a2.46,2.46,0,0,1-.16-.48.3.3,0,0,1,0-.13,2.35,2.35,0,0,1,0-.53.3.3,0,0,1,0-.13l0-.11a.75.75,0,0,1,.05-.16,1.33,1.33,0,0,1,.19-.4s.06-.09.08-.14a2.21,2.21,0,0,1,.41-.4L22,3.57a2,2,0,0,1,2.8.4,2,2,0,0,1-.41,2.8L12.11,16l12.31,9.24A2,2,0,0,1,24.83,28Z"/></g></svg>