<svg id="Layer_1" data-name="Layer 1" xmlns="http://www.w3.org/2000/svg" viewBox="0 0 32 32"><defs><style>.cls-1{fill:#231f20;}</style></defs><title>contract</title><path class="cls-1" d="M14.68,19v7.75a2,2,0,0,1-4,0V21H4.94a2,2,0,0,1,0-4h7.74A2,2,0,0,1,14.68,19Z"/><path class="cls-1" d="M29.06,19a2,2,0,0,1-2,2H21.31v5.75a2,2,0,0,1-4,0V19a2,2,0,0,1,2-2h7.75A2,2,0,0,1,29.06,19Z"/><path class="cls-1" d="M29.06,13a2,2,0,0,1-2,2H19.31a2,2,0,0,1-2-2V5.28a2,2,0,0,1,4,0V11h5.75A2,2,0,0,1,29.06,13Z"/><path class="cls-1" d="M14.68,5.22V13a2,2,0,0,1-2,2H4.94a2,2,0,0,1,0-4h5.74V5.22a2,2,0,0,1,4,0Z"/></svg>