<svg id="Layer_1" data-name="Layer 1" xmlns="http://www.w3.org/2000/svg" viewBox="0 0 32 32"><defs><style>.cls-1{fill:#231f20;}</style></defs><title>expand</title><path class="cls-1" d="M14.69,26.72a2,2,0,0,1-2,2H4.94a2,2,0,0,1-2-2V19a2,2,0,0,1,4,0v5.75h5.75A2,2,0,0,1,14.69,26.72Z"/><path class="cls-1" d="M29.07,19v7.75a2,2,0,0,1-2,2H19.31a2,2,0,0,1,0-4h5.76V19a2,2,0,0,1,4,0Z"/><path class="cls-1" d="M29.07,5.28V13a2,2,0,1,1-4,0V7.28H19.31a2,2,0,1,1,0-4h7.76A2,2,0,0,1,29.07,5.28Z"/><path class="cls-1" d="M14.69,5.22a2,2,0,0,1-2,2H6.94V13a2,2,0,1,1-4,0V5.22a2,2,0,0,1,2-2h7.75A2,2,0,0,1,14.69,5.22Z"/></svg>